<svg xmlns="http://www.w3.org/2000/svg" version="1.1" xmlns:xlink="http://www.w3.org/1999/xlink" xmlns:svgjs="http://svgjs.dev/svgjs" viewBox="0 0 800 800" opacity="0.7"><defs><linearGradient gradientTransform="rotate(270)" x1="50%" y1="0%" x2="50%" y2="100%" id="sssquiggly-grad"><stop stop-color="hsl(206, 75%, 49%)" stop-opacity="1" offset="0%"></stop><stop stop-color="hsl(331, 90%, 56%)" stop-opacity="1" offset="100%"></stop></linearGradient></defs><g stroke-width="0.5" stroke="url(#sssquiggly-grad)" fill="none" stroke-linecap="round" transform="matrix(1,0,0,1,-5,356.5122470855713)"><path d="M10,10C35.69444444444444,10.416666666666666,79.86111111111111,15.541666666666668,133.33333333333334,12C186.80555555555557,8.458333333333332,211.11111111111114,-8.666666666666666,266.6666666666667,-7C322.22222222222223,-5.333333333333334,344.44444444444446,20.208333333333332,400,20C455.55555555555554,19.791666666666668,477.7777777777778,-9.875,533.3333333333334,-8C588.8888888888889,-6.125,611.1111111111112,27.541666666666668,666.6666666666667,29C722.2222222222223,30.458333333333332,772.2222222222223,5.25,800,-1"></path><path d="M10,10C35.69444444444444,10.416666666666666,79.86111111111111,15.541666666666668,133.33333333333334,12C186.80555555555557,8.458333333333332,211.11111111111114,-8.666666666666666,266.6666666666667,-7C322.22222222222223,-5.333333333333334,344.44444444444446,20.208333333333332,400,20C455.55555555555554,19.791666666666668,477.7777777777778,-9.875,533.3333333333334,-8C588.8888888888889,-6.125,611.1111111111112,27.541666666666668,666.6666666666667,29C722.2222222222223,30.458333333333332,772.2222222222223,5.25,800,-1" transform="matrix(1,0,0,1,0,66)"></path><path d="M10,10C35.69444444444444,10.416666666666666,79.86111111111111,15.541666666666668,133.33333333333334,12C186.80555555555557,8.458333333333332,211.11111111111114,-8.666666666666666,266.6666666666667,-7C322.22222222222223,-5.333333333333334,344.44444444444446,20.208333333333332,400,20C455.55555555555554,19.791666666666668,477.7777777777778,-9.875,533.3333333333334,-8C588.8888888888889,-6.125,611.1111111111112,27.541666666666668,666.6666666666667,29C722.2222222222223,30.458333333333332,772.2222222222223,5.25,800,-1" transform="matrix(1,0,0,1,0,55)"></path><path d="M10,10C35.69444444444444,10.416666666666666,79.86111111111111,15.541666666666668,133.33333333333334,12C186.80555555555557,8.458333333333332,211.11111111111114,-8.666666666666666,266.6666666666667,-7C322.22222222222223,-5.333333333333334,344.44444444444446,20.208333333333332,400,20C455.55555555555554,19.791666666666668,477.7777777777778,-9.875,533.3333333333334,-8C588.8888888888889,-6.125,611.1111111111112,27.541666666666668,666.6666666666667,29C722.2222222222223,30.458333333333332,772.2222222222223,5.25,800,-1" transform="matrix(1,0,0,1,0,44)"></path><path d="M10,10C35.69444444444444,10.416666666666666,79.86111111111111,15.541666666666668,133.33333333333334,12C186.80555555555557,8.458333333333332,211.11111111111114,-8.666666666666666,266.6666666666667,-7C322.22222222222223,-5.333333333333334,344.44444444444446,20.208333333333332,400,20C455.55555555555554,19.791666666666668,477.7777777777778,-9.875,533.3333333333334,-8C588.8888888888889,-6.125,611.1111111111112,27.541666666666668,666.6666666666667,29C722.2222222222223,30.458333333333332,772.2222222222223,5.25,800,-1" transform="matrix(1,0,0,1,0,33)"></path><path d="M10,10C35.69444444444444,10.416666666666666,79.86111111111111,15.541666666666668,133.33333333333334,12C186.80555555555557,8.458333333333332,211.11111111111114,-8.666666666666666,266.6666666666667,-7C322.22222222222223,-5.333333333333334,344.44444444444446,20.208333333333332,400,20C455.55555555555554,19.791666666666668,477.7777777777778,-9.875,533.3333333333334,-8C588.8888888888889,-6.125,611.1111111111112,27.541666666666668,666.6666666666667,29C722.2222222222223,30.458333333333332,772.2222222222223,5.25,800,-1" transform="matrix(1,0,0,1,0,22)"></path><path d="M10,10C35.69444444444444,10.416666666666666,79.86111111111111,15.541666666666668,133.33333333333334,12C186.80555555555557,8.458333333333332,211.11111111111114,-8.666666666666666,266.6666666666667,-7C322.22222222222223,-5.333333333333334,344.44444444444446,20.208333333333332,400,20C455.55555555555554,19.791666666666668,477.7777777777778,-9.875,533.3333333333334,-8C588.8888888888889,-6.125,611.1111111111112,27.541666666666668,666.6666666666667,29C722.2222222222223,30.458333333333332,772.2222222222223,5.25,800,-1" transform="matrix(1,0,0,1,0,11)"></path></g></svg>